<svg width="876" height="302" viewBox="0 0 876 302" fill="none" xmlns="http://www.w3.org/2000/svg">
<g clip-path="url(#clip0_1_4)">
<path d="M102.34 115C106.189 108.333 115.811 108.333 119.66 115L214.923 280C218.772 286.667 213.961 295 206.263 295H15.7372C8.03921 295 3.22795 286.667 7.07695 280L102.34 115Z" fill="#5142E6"/>
<path d="M193.348 115.046L176.107 145.032C172.276 151.695 162.673 151.725 158.8 145.086L124.776 86.7592C123.048 83.7964 122.959 80.1545 124.54 77.1106L159.2 10.3901C160.92 7.07823 164.342 5 168.074 5H225.202C228.788 5 232.099 6.92006 233.88 10.0322L388.432 280.032C392.248 286.699 387.435 295 379.753 295H320.348C316.775 295 313.474 293.094 311.688 290L210.678 115.032C206.825 108.358 197.189 108.366 193.348 115.046Z" fill="#53C1F9"/>
<path d="M437.775 206.9H476.975V230H407.85V107.15H437.775V206.9ZM506.298 122.2C501.048 122.2 496.732 120.683 493.348 117.65C490.082 114.5 488.448 110.65 488.448 106.1C488.448 101.433 490.082 97.5833 493.348 94.55C496.732 91.4 501.048 89.825 506.298 89.825C511.432 89.825 515.632 91.4 518.898 94.55C522.282 97.5833 523.973 101.433 523.973 106.1C523.973 110.65 522.282 114.5 518.898 117.65C515.632 120.683 511.432 122.2 506.298 122.2ZM521.173 132.35V230H491.248V132.35H521.173ZM602.36 131.3C613.793 131.3 622.893 135.033 629.66 142.5C636.543 149.85 639.985 160 639.985 172.95V230H610.235V176.975C610.235 170.442 608.543 165.367 605.16 161.75C601.776 158.133 597.226 156.325 591.51 156.325C585.793 156.325 581.243 158.133 577.86 161.75C574.476 165.367 572.785 170.442 572.785 176.975V230H542.86V132.35H572.785V145.3C575.818 140.983 579.901 137.6 585.035 135.15C590.168 132.583 595.943 131.3 602.36 131.3ZM720.455 230L690.705 189.05V230H660.78V100.5H690.705V172.075L720.28 132.35H757.205L716.605 181.35L757.555 230H720.455ZM865.383 132.35V230H835.458V216.7C832.425 221.017 828.283 224.517 823.033 227.2C817.9 229.767 812.183 231.05 805.883 231.05C798.417 231.05 791.825 229.417 786.108 226.15C780.392 222.767 775.958 217.925 772.808 211.625C769.658 205.325 768.083 197.917 768.083 189.4V132.35H797.833V185.375C797.833 191.908 799.525 196.983 802.908 200.6C806.292 204.217 810.842 206.025 816.558 206.025C822.392 206.025 827 204.217 830.383 200.6C833.767 196.983 835.458 191.908 835.458 185.375V132.35H865.383Z" fill="#F4F4F4"/>
<ellipse cx="506" cy="106.5" rx="18" ry="17.5" fill="#5142E6"/>
</g>
<defs>
<clipPath id="clip0_1_4">
<rect width="876" height="302" fill="white"/>
</clipPath>
</defs>
</svg>
