<svg width="472" height="104" viewBox="0 0 472 104" fill="none" xmlns="http://www.w3.org/2000/svg">
<path d="M37.344 68.048H22.112L0.48 41.552L32.096 15.056H47.072L16.864 41.552L37.344 68.048ZM43.163 82L87.835 0.719994H99.483L56.219 82H43.163ZM130.046 43.088C130.131 42.6613 130.217 42.2347 130.302 41.808C130.387 41.3813 130.43 40.912 130.43 40.4C130.43 38.864 130.131 37.456 129.534 36.176C129.022 34.8107 127.955 34.128 126.334 34.128C124.883 34.128 123.433 34.768 121.982 36.048C120.531 37.2427 119.806 38.864 119.806 40.912C119.806 42.2773 120.147 43.3867 120.83 44.24C121.598 45.008 122.579 45.648 123.774 46.16C124.969 46.672 126.291 47.0987 127.742 47.44C129.278 47.7813 130.771 48.1227 132.222 48.464C134.27 48.976 136.19 49.616 137.982 50.384C139.859 51.0667 141.523 52.0053 142.974 53.2C144.425 54.3947 145.577 55.888 146.43 57.68C147.283 59.3867 147.71 61.52 147.71 64.08C147.71 67.664 146.857 70.6933 145.15 73.168C143.529 75.5573 141.225 77.52 138.238 79.056C135.337 80.5067 131.881 81.5307 127.87 82.128C123.945 82.7253 119.721 83.024 115.198 83.024C108.286 83.024 102.569 82.512 98.046 81.488C93.5233 80.464 90.366 79.4827 88.574 78.544L91.262 65.744H108.542C108.457 66.1707 108.414 66.5973 108.414 67.024C108.414 67.3653 108.414 67.7493 108.414 68.176C108.414 70.1387 108.841 71.7173 109.694 72.912C110.633 74.0213 112.211 74.576 114.43 74.576C116.905 74.576 118.654 73.8933 119.678 72.528C120.787 71.0773 121.342 69.7547 121.342 68.56C121.342 67.3653 120.873 66.3413 119.934 65.488C119.081 64.5493 117.971 63.7813 116.606 63.184C115.241 62.5013 113.705 61.9467 111.998 61.52C110.377 61.008 108.798 60.5387 107.262 60.112C106.153 59.856 104.873 59.4293 103.422 58.832C102.057 58.2347 100.734 57.3813 99.454 56.272C98.174 55.1627 97.1073 53.7547 96.254 52.048C95.4007 50.256 94.974 48.0373 94.974 45.392C94.974 41.6373 95.87 38.5227 97.662 36.048C99.5393 33.488 101.929 31.44 104.83 29.904C107.817 28.368 111.145 27.2587 114.814 26.576C118.569 25.8933 122.323 25.552 126.078 25.552C130.771 25.552 135.209 25.9787 139.39 26.832C143.571 27.6853 146.985 28.7947 149.63 30.16L146.686 43.088H130.046ZM180.529 56.272C180.188 58.1493 179.932 59.9413 179.761 61.648C179.676 63.3547 179.633 64.8907 179.633 66.256C179.633 67.024 179.676 67.8773 179.761 68.816C179.846 69.7547 180.017 70.6507 180.273 71.504C180.614 72.272 181.041 72.9547 181.553 73.552C182.15 74.064 182.961 74.32 183.985 74.32C184.753 74.32 185.606 74.064 186.545 73.552C187.569 73.04 188.55 72.3147 189.489 71.376C190.513 70.4373 191.452 69.2853 192.305 67.92C193.244 66.5547 193.969 65.0187 194.481 63.312H215.473L212.145 77.008C210.438 78.1173 208.476 79.056 206.257 79.824C204.038 80.592 201.692 81.232 199.217 81.744C196.742 82.1707 194.225 82.4693 191.665 82.64C189.105 82.896 186.673 83.024 184.369 83.024C180.102 83.024 176.134 82.64 172.465 81.872C168.796 81.104 165.596 79.7813 162.865 77.904C160.134 76.0267 157.958 73.552 156.337 70.48C154.801 67.3227 154.033 63.44 154.033 58.832C154.033 54.6507 154.673 50.5547 155.953 46.544C157.318 42.5333 159.537 38.992 162.609 35.92C165.766 32.7627 169.948 30.2453 175.153 28.368C180.444 26.4907 187.014 25.552 194.865 25.552C203.398 25.552 209.798 26.8747 214.065 29.52C218.417 32.1653 220.593 36.304 220.593 41.936C220.593 44.24 220.252 46.7573 219.569 49.488C218.886 52.1333 217.862 54.3947 216.497 56.272H180.529ZM197.553 41.04C197.553 38.3947 197.126 36.6027 196.273 35.664C195.42 34.7253 194.396 34.256 193.201 34.256C191.836 34.256 190.556 34.7253 189.361 35.664C188.252 36.5173 187.228 37.712 186.289 39.248C185.35 40.6987 184.497 42.4053 183.729 44.368C182.961 46.2453 182.321 48.2507 181.809 50.384H196.401C196.572 49.36 196.742 48.2933 196.913 47.184C197.084 46.2453 197.212 45.2213 197.297 44.112C197.468 43.0027 197.553 41.9787 197.553 41.04ZM227.888 26.96C231.045 26.2773 233.819 25.5093 236.208 24.656C238.597 23.8027 240.773 22.736 242.736 21.456C244.784 20.176 246.704 18.5973 248.496 16.72C250.373 14.8427 252.379 12.5387 254.512 9.808H267.696L263.984 26.96H273.968L272.304 35.536H262.192L256.944 60.496C256.517 62.4587 256.176 64.208 255.92 65.744C255.664 67.28 255.536 68.4747 255.536 69.328C255.536 71.0347 256.133 72.1013 257.328 72.528C258.608 72.9547 260.955 73.168 264.368 73.168L262.448 82C261.851 82.1707 260.912 82.2987 259.632 82.384C258.437 82.4693 257.072 82.5547 255.536 82.64C254.085 82.8107 252.549 82.896 250.928 82.896C249.392 82.9813 248.027 83.024 246.832 83.024C244.699 83.024 242.608 82.8533 240.56 82.512C238.512 82.256 236.677 81.7013 235.056 80.848C233.435 79.9093 232.112 78.5867 231.088 76.88C230.149 75.1733 229.68 72.8693 229.68 69.968C229.68 68.944 229.723 67.664 229.808 66.128C229.979 64.592 230.277 62.8853 230.704 61.008L236.08 35.536H226.096L227.888 26.96ZM319.869 26.96H345.981L334.205 82H313.469L311.165 73.808H310.397C308.178 76.4533 305.149 78.672 301.309 80.464C297.554 82.1707 293.757 83.024 289.917 83.024C284.797 83.024 280.786 81.744 277.885 79.184C274.984 76.5387 273.533 73.1253 273.533 68.944C273.533 66.8107 273.874 64.1653 274.557 61.008C275.325 57.7653 276.008 54.736 276.605 51.92L281.981 26.96H307.965L301.565 56.912C301.394 57.5947 301.224 58.4053 301.053 59.344C300.882 60.2827 300.712 61.2213 300.541 62.16C300.37 63.0133 300.2 63.8667 300.029 64.72C299.944 65.488 299.901 66.128 299.901 66.64C299.901 67.92 300.157 69.0293 300.669 69.968C301.266 70.8213 302.29 71.248 303.741 71.248C305.277 71.248 306.728 70.736 308.093 69.712C309.458 68.688 310.525 67.7067 311.293 66.768L319.869 26.96ZM367.224 103.504H341.112L357.24 26.96H378.104L380.408 35.152H381.176C384.248 31.9093 387.661 29.6053 391.416 28.24C395.256 26.7893 399.011 26.064 402.68 26.064C405.667 26.064 408.141 26.5333 410.104 27.472C412.152 28.3253 413.773 29.52 414.968 31.056C416.163 32.592 417.016 34.4267 417.528 36.56C418.04 38.6933 418.296 40.9547 418.296 43.344C418.296 44.5387 418.211 46.3307 418.04 48.72C417.869 51.1093 417.485 53.7973 416.888 56.784C416.291 59.6853 415.437 62.7147 414.328 65.872C413.219 68.944 411.725 71.76 409.848 74.32C408.056 76.88 405.752 78.9707 402.936 80.592C400.205 82.2133 396.92 83.024 393.08 83.024C390.947 83.024 388.856 82.768 386.808 82.256C384.845 81.744 383.053 81.0613 381.432 80.208C379.811 79.3547 378.36 78.3733 377.08 77.264C375.885 76.0693 374.989 74.8747 374.392 73.68H373.624L367.224 103.504ZM380.792 70.608C382.84 70.608 384.547 69.5413 385.912 67.408C387.277 65.1893 388.387 62.6293 389.24 59.728C390.093 56.7413 390.691 53.7973 391.032 50.896C391.459 47.9093 391.672 45.6907 391.672 44.24C391.672 42.5333 391.373 41.1253 390.776 40.016C390.264 38.9067 389.283 38.352 387.832 38.352C386.211 38.352 384.675 38.9493 383.224 40.144C381.773 41.2533 380.707 42.2347 380.024 43.088L375.032 66.512C375.715 67.4507 376.525 68.3893 377.464 69.328C378.403 70.1813 379.512 70.608 380.792 70.608ZM434.294 15.056H449.398L471.03 41.552L439.542 68.048H424.438L454.646 41.552L434.294 15.056Z" fill="#00AA13"/>
</svg>
