<svg width="484" height="150" viewBox="0 0 484 150" fill="none" xmlns="http://www.w3.org/2000/svg">
<path fill-rule="evenodd" clip-rule="evenodd" d="M1.62622 36.4668C2.44113 35.3054 3.2622 34.949 3.2622 34.949C3.2622 34.949 52.2868 6.31118 60.9341 1.32302C61.6383 0.909999 62.021 0.685625 62.021 0.685625C62.021 0.685625 63.1435 -0.0430188 65 0.0020038C66.8565 -0.04302 67.979 0.685625 67.979 0.685625C67.979 0.685625 68.3618 0.910043 69.0661 1.32314C77.714 6.31165 126.738 34.949 126.738 34.949C126.738 34.949 127.559 35.3054 128.374 36.4667C129.958 37.9332 129.999 39.8439 129.999 39.8439C129.999 39.8439 129.994 46.3408 129.988 55.3835C129.991 69.2333 129.982 90.3931 129.977 101.108C129.979 104.042 129.982 106.417 129.987 107.989C129.998 108.153 130.008 108.434 129.99 108.797C129.993 109.405 129.996 109.816 129.999 110C130.057 113.106 126.224 115.439 126.224 115.439L68.5183 149.157C67.2876 149.814 66.0682 150.016 65 149.999C63.9317 150.016 62.7124 149.814 61.4817 149.157L3.77571 115.439C3.77571 115.439 -0.0572408 113.106 0.000649206 110C0.00411884 109.816 0.00717617 109.406 0.00985793 108.797C-0.00793716 108.434 0.00216109 108.153 0.0128493 107.989C0.017798 106.417 0.0212011 104.042 0.0233842 101.108C0.0180505 90.3927 0.00894789 69.2296 0.0123331 55.3797C0.00630046 46.339 0.000643072 39.8439 0.000643072 39.8439C0.000643072 39.8439 0.0416485 37.9333 1.62622 36.4668ZM23.0663 109.859C34.8815 116.733 62.7161 133.037 62.7161 133.037C62.7161 133.037 63.657 133.551 65 133.672C66.343 133.551 67.2839 133.037 67.2839 133.037C67.2839 133.037 95.1185 116.733 106.934 109.859L67.7689 85.8767C67.7689 85.8767 65.8885 84.6202 65 81.8385C64.1116 84.6202 62.2311 85.8767 62.2311 85.8767L23.0663 109.859ZM64.5453 66.8685L14.4437 97.5593C14.4421 94.7954 14.4401 90.4328 14.4386 85.4388L14.434 63.3262C14.4345 56.4748 14.4376 51.0209 14.4457 49.6163C14.4746 44.7445 16.9863 43.6572 16.9863 43.6572C16.9863 43.6572 60.3218 18.4244 63.1391 16.8432C63.8188 16.5491 64.4436 16.3982 65 16.3382C65.5564 16.3982 66.1812 16.5491 66.8609 16.8432C69.6783 18.4244 113.014 43.6572 113.014 43.6572C113.014 43.6572 115.525 44.7445 115.554 49.6163C115.562 51.0209 115.565 56.4748 115.566 63.3262L115.561 85.4388C115.56 90.4328 115.558 94.7954 115.556 97.5593L65.4547 66.8685V66.3114L65 66.5899L64.5453 66.3114V66.8685Z" fill="#38ABBE"/>
<path d="M205.42 73.0085L191.571 73.8608C191.334 72.6771 190.825 71.6117 190.044 70.6648C189.263 69.6941 188.233 68.9247 186.955 68.3565C185.7 67.7647 184.196 67.4688 182.445 67.4688C180.101 67.4688 178.124 67.9659 176.514 68.9602C174.904 69.9309 174.099 71.233 174.099 72.8665C174.099 74.1686 174.62 75.2694 175.662 76.169C176.704 77.0687 178.491 77.7907 181.024 78.3352L190.896 80.3239C196.199 81.4129 200.153 83.1648 202.757 85.5795C205.361 87.9943 206.663 91.1667 206.663 95.0966C206.663 98.6714 205.61 101.808 203.503 104.507C201.42 107.206 198.555 109.313 194.909 110.828C191.287 112.32 187.108 113.065 182.374 113.065C175.153 113.065 169.4 111.562 165.115 108.555C160.854 105.525 158.356 101.406 157.622 96.1974L172.501 95.4162C172.951 97.6179 174.04 99.2988 175.768 100.459C177.497 101.595 179.71 102.163 182.409 102.163C185.061 102.163 187.191 101.654 188.801 100.636C190.435 99.5947 191.263 98.2571 191.287 96.6236C191.263 95.2505 190.683 94.1259 189.547 93.25C188.411 92.3504 186.659 91.6638 184.291 91.1903L174.845 89.3082C169.518 88.2429 165.553 86.3963 162.949 83.7685C160.368 81.1406 159.078 77.7907 159.078 73.7188C159.078 70.215 160.025 67.1965 161.919 64.6634C163.837 62.1302 166.524 60.1771 169.98 58.804C173.46 57.4309 177.532 56.7443 182.196 56.7443C189.085 56.7443 194.507 58.2003 198.46 61.1122C202.438 64.0241 204.758 67.9896 205.42 73.0085ZM231.317 80.4659V112H216.189V39.2727H230.891V67.0781H231.53C232.761 63.8584 234.75 61.3371 237.496 59.5142C240.242 57.6676 243.687 56.7443 247.83 56.7443C251.618 56.7443 254.92 57.5729 257.738 59.2301C260.578 60.8636 262.78 63.2192 264.343 66.2969C265.929 69.3509 266.71 73.0085 266.686 77.2699V112H251.559V79.9688C251.582 76.607 250.73 73.991 249.002 72.1207C247.297 70.2505 244.906 69.3153 241.828 69.3153C239.769 69.3153 237.946 69.7533 236.36 70.6293C234.797 71.5052 233.566 72.7836 232.667 74.4645C231.791 76.1217 231.341 78.1222 231.317 80.4659ZM294.146 113.03C290.665 113.03 287.564 112.426 284.842 111.219C282.119 109.988 279.965 108.177 278.379 105.786C276.816 103.371 276.035 100.364 276.035 96.7656C276.035 93.7353 276.591 91.1903 277.704 89.1307C278.817 87.071 280.332 85.4138 282.249 84.1591C284.167 82.9044 286.345 81.9574 288.783 81.3182C291.246 80.679 293.826 80.2292 296.525 79.9688C299.697 79.6373 302.254 79.3295 304.195 79.0455C306.137 78.7377 307.545 78.2879 308.421 77.696C309.297 77.1042 309.735 76.2282 309.735 75.0682V74.8551C309.735 72.6061 309.025 70.866 307.604 69.6349C306.208 68.4039 304.219 67.7884 301.638 67.7884C298.916 67.7884 296.75 68.392 295.14 69.5994C293.53 70.7831 292.465 72.2746 291.944 74.0739L277.952 72.9375C278.663 69.6231 280.059 66.7585 282.143 64.3438C284.226 61.9053 286.913 60.035 290.204 58.733C293.518 57.4072 297.353 56.7443 301.71 56.7443C304.74 56.7443 307.64 57.0994 310.41 57.8097C313.203 58.5199 315.677 59.6207 317.832 61.1122C320.01 62.6037 321.726 64.5213 322.981 66.8651C324.236 69.1851 324.863 71.9669 324.863 75.2102V112H310.516V104.436H310.09C309.214 106.141 308.042 107.644 306.575 108.946C305.107 110.224 303.343 111.231 301.283 111.964C299.224 112.675 296.844 113.03 294.146 113.03ZM298.478 102.589C300.703 102.589 302.668 102.152 304.373 101.276C306.077 100.376 307.415 99.1686 308.386 97.6534C309.356 96.1383 309.842 94.4219 309.842 92.5043V86.7159C309.368 87.0237 308.717 87.3078 307.888 87.5682C307.084 87.8049 306.172 88.0298 305.154 88.2429C304.136 88.4323 303.118 88.6098 302.1 88.7756C301.082 88.9176 300.159 89.0478 299.33 89.1662C297.555 89.4266 296.004 89.8409 294.678 90.4091C293.353 90.9773 292.323 91.7467 291.589 92.7173C290.855 93.6643 290.488 94.848 290.488 96.2685C290.488 98.3281 291.234 99.9025 292.725 100.991C294.24 102.057 296.158 102.589 298.478 102.589ZM336.599 112V57.4545H351.017V67.0781H351.656C352.793 63.8821 354.687 61.3608 357.338 59.5142C359.99 57.6676 363.162 56.7443 366.855 56.7443C370.596 56.7443 373.78 57.6795 376.408 59.5497C379.036 61.3963 380.787 63.9058 381.663 67.0781H382.232C383.344 63.9531 385.357 61.4555 388.268 59.5852C391.204 57.6913 394.672 56.7443 398.673 56.7443C403.763 56.7443 407.894 58.366 411.067 61.6094C414.263 64.8291 415.861 69.3982 415.861 75.3168V112H400.768V78.2997C400.768 75.2694 399.964 72.9967 398.354 71.4815C396.744 69.9664 394.732 69.2088 392.317 69.2088C389.571 69.2088 387.428 70.0848 385.889 71.8366C384.35 73.5649 383.581 75.8494 383.581 78.6903V112H368.915V77.9801C368.915 75.3049 368.145 73.1742 366.607 71.5881C365.091 70.0019 363.091 69.2088 360.605 69.2088C358.924 69.2088 357.409 69.6349 356.06 70.4872C354.734 71.3158 353.68 72.4877 352.899 74.0028C352.118 75.4943 351.727 77.2462 351.727 79.2585V112H336.599ZM452.455 113.065C446.939 113.065 442.169 111.893 438.144 109.55C434.143 107.182 431.054 103.892 428.876 99.6776C426.698 95.4399 425.609 90.5275 425.609 84.9403C425.609 79.3059 426.698 74.3816 428.876 70.1676C431.054 65.9299 434.143 62.6392 438.144 60.2955C442.169 57.928 446.939 56.7443 452.455 56.7443C457.971 56.7443 462.73 57.928 466.731 60.2955C470.755 62.6392 473.857 65.9299 476.035 70.1676C478.213 74.3816 479.302 79.3059 479.302 84.9403C479.302 90.5275 478.213 95.4399 476.035 99.6776C473.857 103.892 470.755 107.182 466.731 109.55C462.73 111.893 457.971 113.065 452.455 113.065ZM452.526 101.347C455.036 101.347 457.131 100.636 458.812 99.2159C460.493 97.7718 461.759 95.8068 462.612 93.321C463.487 90.8352 463.925 88.0062 463.925 84.8338C463.925 81.6615 463.487 78.8324 462.612 76.3466C461.759 73.8608 460.493 71.8958 458.812 70.4517C457.131 69.0076 455.036 68.2855 452.526 68.2855C449.993 68.2855 447.862 69.0076 446.134 70.4517C444.43 71.8958 443.139 73.8608 442.263 76.3466C441.411 78.8324 440.985 81.6615 440.985 84.8338C440.985 88.0062 441.411 90.8352 442.263 93.321C443.139 95.8068 444.43 97.7718 446.134 99.2159C447.862 100.636 449.993 101.347 452.526 101.347Z" fill="#38ABBE"/>
</svg>
