<?xml version="1.0" encoding="UTF-8" standalone="no"?>
<!-- Created with Inkscape (http://www.inkscape.org/) -->

<svg
   xmlns:dc="http://purl.org/dc/elements/1.1/"
   xmlns:cc="http://creativecommons.org/ns#"
   xmlns:rdf="http://www.w3.org/1999/02/22-rdf-syntax-ns#"
   xmlns:svg="http://www.w3.org/2000/svg"
   xmlns="http://www.w3.org/2000/svg"
   xmlns:sodipodi="http://sodipodi.sourceforge.net/DTD/sodipodi-0.dtd"
   xmlns:inkscape="http://www.inkscape.org/namespaces/inkscape"
 
   viewBox="0 0 1000 222.24201"
   id="svg4161"
   version="1.1"
   inkscape:version="0.91 r13725"
   sodipodi:docname="Traveloka 2014.svg">
  <defs
     id="defs4163" />
  <sodipodi:namedview
     id="base"
     pagecolor="#ffffff"
     bordercolor="#666666"
     borderopacity="1.0"
     inkscape:pageopacity="0.0"
     inkscape:pageshadow="2"
     inkscape:zoom="0.7"
     inkscape:cx="528.21072"
     inkscape:cy="86.35405"
     inkscape:document-units="px"
     inkscape:current-layer="layer1"
     showgrid="false"
     units="px"
     inkscape:window-width="1366"
     inkscape:window-height="705"
     inkscape:window-x="-8"
     inkscape:window-y="-8"
     inkscape:window-maximized="1" />
  <metadata
     id="metadata4166">
    <rdf:RDF>
      <cc:Work
         rdf:about="">
        <dc:format>image/svg+xml</dc:format>
        <dc:type
           rdf:resource="http://purl.org/dc/dcmitype/StillImage" />
        <dc:title></dc:title>
      </cc:Work>
    </rdf:RDF>
  </metadata>
  <g
     inkscape:label="Layer 1"
     inkscape:groupmode="layer"
     id="layer1"
     transform="translate(0,-830.12018)">
    <g
       id="g3"
       transform="matrix(1.1878036,0,0,1.1878036,0,830.12176)">
      <path
         d="m 24.924,179.708 c -7.3,-5.089 -13.161,-14.187 -13.161,-30.332 l 0,-42.767 -8.61,0 -3.153,0 0,-3.152 0,-10.105 0,-3.152 3.152,0 8.789,0 0,-22.201 0,-3.152 3.152,0 11.94,0 3.152,0 0,3.152 0,22.201 19.481,0 3.152,0 0,3.152 0,10.105 0,3.152 -3.152,0 -19.481,0 0,41.525 c 0,7.495 1.843,12.269 4.431,15.272 3.723,4.32 9.193,5.156 12.733,5.156 0.61,0 1.221,0 1.706,-0.032 l 0.012,0 c 0.543,-0.036 1.105,-0.104 1.704,-0.236 l 3.829,-0.847 0,3.912 0,10.815 0,2.665 -2.647,0.438 c -0.688,0.114 -1.601,0.227 -2.681,0.3 -0.917,0.063 -1.929,0.104 -2.993,0.104 -5.598,0.002 -14.12,-0.93 -21.355,-5.973 l 0,0 z m 56.821,5.266 -12.118,0 -3.152,0 0,-3.152 0,-89.179 0,-3.153 3.152,0 11.94,0 3.152,0 0,3.152 0,9.775 c 1.77,-2.431 3.775,-4.632 5.995,-6.525 5.3,-4.519 11.789,-7.289 19.189,-7.289 0.901,0 1.889,0.055 2.883,0.165 0.928,0.102 1.845,0.257 2.68,0.465 l 2.401,0.598 0,2.456 0,11.878 0,4.358 -4.137,-1.366 c -0.038,-0.013 -0.45,-0.051 -1.056,-0.099 -0.725,-0.058 -1.6,-0.096 -2.415,-0.096 -7.78,0 -13.57,3.903 -17.611,9.606 l -0.006,-0.004 c -5.344,7.548 -7.747,18.189 -7.747,27.491 l 0,37.764 0,3.152 -3.15,0 0,0.003 z m 49.065,-6.138 c -5.717,-4.917 -9.445,-11.925 -9.445,-20.949 0,-16.332 10.295,-24.939 22.944,-29.451 11.961,-4.267 25.967,-4.728 34.742,-4.728 l 2.189,0 c -0.105,-6.792 -1.823,-11.429 -4.665,-14.393 -3.311,-3.453 -8.358,-4.834 -14.277,-4.834 -4.16,0 -8.307,0.716 -12.243,2.03 -4.089,1.366 -7.96,3.364 -11.395,5.864 l -2.778,2.023 -1.766,-2.946 -5.524,-9.22 -1.373,-2.291 2.038,-1.723 c 3.885,-3.285 9.23,-6.022 15.192,-7.921 5.852,-1.864 12.312,-2.936 18.562,-2.936 11.692,0 20.847,3.313 27.14,9.742 6.239,6.371 9.517,15.646 9.517,27.628 l 0,57.089 0,3.152 -3.152,0 -11.584,0 -3.152,0 0,-3.152 0,-6.922 c -2.09,2.351 -4.512,4.475 -7.217,6.264 -5.535,3.661 -12.252,5.938 -19.749,5.938 -8.796,0.002 -17.634,-2.784 -24.004,-8.264 l 0,0 z m 22.885,-36.637 c -7.61,2.244 -13.729,6.499 -13.729,14.624 0,3.596 1.579,7.282 4.714,9.931 2.807,2.373 6.894,3.937 12.272,3.937 6.978,0 12.645,-3.347 16.724,-8.3 4.904,-5.956 7.569,-14.187 7.569,-21.879 l 0,-0.925 -2.016,0 c -6.776,0 -17.105,0.126 -25.534,2.612 l 0,0 z m 106.979,42.775 -13.188,0 -2.148,0 -0.783,-2.02 -34.574,-89.179 -1.661,-4.285 4.591,0 13.01,0 2.169,0 0.773,2.044 24.772,65.421 0.012,0.037 c 0.115,0.317 0.228,0.643 0.34,0.976 0.114,-0.332 0.229,-0.658 0.344,-0.976 l 0.012,-0.037 24.771,-65.421 0.774,-2.044 2.168,0 12.832,0 4.583,0 -1.64,4.272 -34.217,89.179 -0.779,2.032 -2.161,0 0,10e-4 z m 55.608,-12.032 c -8.867,-8.787 -14.206,-21.132 -14.206,-35.622 0,-14.991 5.037,-27.138 13.171,-35.719 8.726,-9.203 20.967,-14.239 34.356,-14.239 12.72,0 22.53,4.669 29.35,12.165 7.457,8.195 11.228,19.715 11.228,32.119 0,0.983 -0.05,2.081 -0.124,3.212 -0.056,0.86 -0.156,1.982 -0.258,3.101 l -0.262,2.869 -2.865,0 -65.46,0 c 0.816,8.492 4.034,15.232 8.781,20.053 5.755,5.843 13.829,8.923 22.64,8.923 4.476,0 9.036,-0.926 13.317,-2.595 4.371,-1.705 8.446,-4.179 11.844,-7.229 l 2.839,-2.549 1.963,3.274 5.525,9.22 1.324,2.209 -1.903,1.731 c -4.459,4.059 -10.133,7.361 -16.245,9.649 -6.151,2.303 -12.756,3.587 -19.021,3.587 -14.336,0.001 -26.971,-5.215 -35.994,-14.159 l 0,0 z m 14.557,-62.572 c -3.932,3.526 -6.949,8.416 -8.559,14.578 l 49.058,0 c -0.764,-6.401 -3.013,-11.321 -6.223,-14.805 -4.043,-4.387 -9.704,-6.549 -15.868,-6.549 -6.971,0.001 -13.447,2.325 -18.408,6.776 l 0,0 z m 84.787,71.131 c -5.006,-3.546 -8.938,-9.804 -8.938,-20.777 l 0,-103.541 0,-3.152 3.152,0 12.119,0 3.152,0 0,3.152 0,100.88 c 0,4.871 0.984,7.515 2.381,8.872 1.21,1.176 2.976,1.45 4.625,1.45 0.415,0 0.936,0 1.156,-0.01 0.375,-0.017 0.784,-0.051 1.19,-0.118 l 3.657,-0.606 0,3.709 0,10.815 0,2.667 -2.647,0.437 c -0.566,0.093 -1.251,0.189 -2.115,0.268 -0.899,0.081 -1.858,0.136 -2.845,0.136 -4.098,0 -9.931,-0.672 -14.887,-4.182 l 0,0 z m 43.38,-8.986 c -8.999,-8.986 -14.536,-21.483 -14.536,-35.727 0,-13.994 5.544,-26.276 14.555,-35.105 9.126,-8.942 21.789,-14.32 35.824,-14.32 14.046,0 26.761,5.383 35.928,14.331 9.048,8.832 14.631,21.109 14.631,35.095 0,14.233 -5.571,26.72 -14.601,35.703 -9.172,9.125 -21.898,14.61 -35.958,14.61 -14.05,0 -26.719,-5.476 -35.843,-14.587 l 0,0 z m 13.355,-58.695 c -5.639,5.753 -9.112,13.791 -9.112,22.968 0,9.5 3.455,17.698 9.067,23.539 5.712,5.944 13.683,9.477 22.532,9.477 8.867,0 16.892,-3.542 22.646,-9.501 5.644,-5.844 9.131,-14.032 9.131,-23.515 0,-9.16 -3.507,-17.188 -9.176,-22.943 -5.755,-5.843 -13.76,-9.363 -22.602,-9.363 -8.823,-0.001 -16.774,3.51 -22.486,9.338 l 0,0 z m 104.645,71.154 -12.118,0 -3.152,0 0,-3.152 0,-124.639 0,-3.152 3.152,0 12.118,0 3.152,0 0,3.152 0,66.347 9.756,0 25.784,-32.833 0.947,-1.207 1.527,0 14.614,0 6.565,0 -4.114,5.123 -29.854,37.166 33.196,48.257 3.396,4.938 -5.981,0 -14.613,0 -1.672,0 -0.938,-1.404 -28.823,-43.097 -9.79,0 0,41.349 0,3.152 -3.152,0 0,0 z m 73.658,-6.138 c 6.37,5.48 15.208,8.266 24.004,8.266 7.498,0 14.215,-2.277 19.749,-5.938 2.706,-1.79 5.127,-3.914 7.217,-6.266 l 0,6.923 0,3.152 3.152,0 11.585,0 3.151,0 0,-3.152 0,-57.089 c 0,-11.981 -3.277,-21.257 -9.516,-27.628 -6.295,-6.428 -15.449,-9.742 -27.141,-9.742 -6.25,0 -12.71,1.072 -18.563,2.936 -5.961,1.898 -11.307,4.636 -15.191,7.921 l -2.038,1.724 1.373,2.29 5.524,9.22 1.766,2.946 2.778,-2.023 c 3.435,-2.5 7.306,-4.498 11.396,-5.864 3.936,-1.314 8.083,-2.03 12.242,-2.03 5.919,0 10.966,1.381 14.276,4.834 2.842,2.964 4.56,7.6 4.665,14.393 l -2.189,0 c -8.775,0 -22.78,0.461 -34.742,4.728 -12.648,4.512 -22.944,13.119 -22.944,29.451 0.001,9.023 3.729,16.031 9.446,20.948 l 0,0 z m 22.886,-36.637 c 8.429,-2.486 18.758,-2.612 25.533,-2.612 l 2.017,0 0,0.925 c 0,7.692 -2.666,15.923 -7.569,21.878 -4.079,4.955 -9.746,8.301 -16.724,8.301 -5.379,0 -9.465,-1.563 -12.272,-3.936 -3.135,-2.649 -4.714,-6.336 -4.714,-9.932 -10e-4,-8.125 6.119,-12.38 13.729,-14.624 z"
         id="path5"
         inkscape:connector-curvature="0"
         style="clip-rule:evenodd;fill:#393839;fill-rule:evenodd" />
      <g
         id="g7">
        <path
           d="m 789.308,98.81 c 0.106,-0.064 0.211,-0.124 0.317,-0.19 -4.807,-14.364 15.181,-38.637 52.265,-79.231 -29.979,3.679 -53.168,11.289 -69.569,22.829 1.596,23.525 7.258,42.39 16.987,56.592 z"
           id="path9"
           inkscape:connector-curvature="0"
           style="clip-rule:evenodd;fill:#0099c2;fill-rule:evenodd" />
        <path
           d="m 789.308,98.81 c 0.106,-0.064 0.211,-0.124 0.317,-0.19 -0.162,-0.485 -0.294,-0.983 -0.4,-1.492 -4.682,-17.788 -6.577,-38.339 -5.689,-61.652 -4.037,2.074 -7.775,4.322 -11.215,6.742 1.596,23.524 7.257,42.39 16.987,56.592 z"
           id="path11"
           inkscape:connector-curvature="0"
           style="clip-rule:evenodd;fill:#007ba5;fill-rule:evenodd" />
        <path
           d="m 801.647,119.401 c 7.921,4.054 14.48,6.146 20.295,5.143 -39.069,-15.313 -55.286,-56.829 -48.651,-124.545 -14.034,2.759 -25.427,9.178 -33.36,19.877 -6.91,9.319 -4.693,21.167 0.974,36.975 0.76,2.122 1.674,13.547 -3.059,17.792 -1.739,1.56 -4.532,0.326 -6.95,-1.251 -8.307,-4.718 -15.21,-4.672 -20.711,0.139 -15.161,-2.545 -26.143,-3.935 -32.943,-4.17 9.703,3.057 20.913,6.197 33.499,9.869 5.376,1.568 9.988,5.256 13.622,10.842 7.438,11.432 28.513,17.631 48.928,20.573 7.66,1.103 18.252,3.586 28.356,8.756 z"
           id="path13"
           inkscape:connector-curvature="0"
           style="clip-rule:evenodd;fill:#009dda;fill-rule:evenodd" />
      </g>
    </g>
  </g>
</svg>
