<svg width="479" height="156" viewBox="0 0 479 156" fill="none" xmlns="http://www.w3.org/2000/svg">
<ellipse cx="258.5" cy="90" rx="101.5" ry="66" fill="#460894"/>
<ellipse cx="259.5" cy="94" rx="101.5" ry="60" fill="#0F172A"/>
<path d="M41.344 111.048H26.112L4.48 84.552L36.096 58.056H51.072L20.864 84.552L41.344 111.048ZM47.163 125L91.835 43.72H103.483L60.219 125H47.163ZM134.046 86.088C134.131 85.6613 134.217 85.2347 134.302 84.808C134.387 84.3813 134.43 83.912 134.43 83.4C134.43 81.864 134.131 80.456 133.534 79.176C133.022 77.8107 131.955 77.128 130.334 77.128C128.883 77.128 127.433 77.768 125.982 79.048C124.531 80.2427 123.806 81.864 123.806 83.912C123.806 85.2773 124.147 86.3867 124.83 87.24C125.598 88.008 126.579 88.648 127.774 89.16C128.969 89.672 130.291 90.0987 131.742 90.44C133.278 90.7813 134.771 91.1227 136.222 91.464C138.27 91.976 140.19 92.616 141.982 93.384C143.859 94.0667 145.523 95.0053 146.974 96.2C148.425 97.3947 149.577 98.888 150.43 100.68C151.283 102.387 151.71 104.52 151.71 107.08C151.71 110.664 150.857 113.693 149.15 116.168C147.529 118.557 145.225 120.52 142.238 122.056C139.337 123.507 135.881 124.531 131.87 125.128C127.945 125.725 123.721 126.024 119.198 126.024C112.286 126.024 106.569 125.512 102.046 124.488C97.5233 123.464 94.366 122.483 92.574 121.544L95.262 108.744H112.542C112.457 109.171 112.414 109.597 112.414 110.024C112.414 110.365 112.414 110.749 112.414 111.176C112.414 113.139 112.841 114.717 113.694 115.912C114.633 117.021 116.211 117.576 118.43 117.576C120.905 117.576 122.654 116.893 123.678 115.528C124.787 114.077 125.342 112.755 125.342 111.56C125.342 110.365 124.873 109.341 123.934 108.488C123.081 107.549 121.971 106.781 120.606 106.184C119.241 105.501 117.705 104.947 115.998 104.52C114.377 104.008 112.798 103.539 111.262 103.112C110.153 102.856 108.873 102.429 107.422 101.832C106.057 101.235 104.734 100.381 103.454 99.272C102.174 98.1627 101.107 96.7547 100.254 95.048C99.4007 93.256 98.974 91.0373 98.974 88.392C98.974 84.6373 99.87 81.5227 101.662 79.048C103.539 76.488 105.929 74.44 108.83 72.904C111.817 71.368 115.145 70.2587 118.814 69.576C122.569 68.8933 126.323 68.552 130.078 68.552C134.771 68.552 139.209 68.9787 143.39 69.832C147.571 70.6853 150.985 71.7947 153.63 73.16L150.686 86.088H134.046ZM184.529 99.272C184.188 101.149 183.932 102.941 183.761 104.648C183.676 106.355 183.633 107.891 183.633 109.256C183.633 110.024 183.676 110.877 183.761 111.816C183.846 112.755 184.017 113.651 184.273 114.504C184.614 115.272 185.041 115.955 185.553 116.552C186.15 117.064 186.961 117.32 187.985 117.32C188.753 117.32 189.606 117.064 190.545 116.552C191.569 116.04 192.55 115.315 193.489 114.376C194.513 113.437 195.452 112.285 196.305 110.92C197.244 109.555 197.969 108.019 198.481 106.312H219.473L216.145 120.008C214.438 121.117 212.476 122.056 210.257 122.824C208.038 123.592 205.692 124.232 203.217 124.744C200.742 125.171 198.225 125.469 195.665 125.64C193.105 125.896 190.673 126.024 188.369 126.024C184.102 126.024 180.134 125.64 176.465 124.872C172.796 124.104 169.596 122.781 166.865 120.904C164.134 119.027 161.958 116.552 160.337 113.48C158.801 110.323 158.033 106.44 158.033 101.832C158.033 97.6507 158.673 93.5547 159.953 89.544C161.318 85.5333 163.537 81.992 166.609 78.92C169.766 75.7627 173.948 73.2453 179.153 71.368C184.444 69.4907 191.014 68.552 198.865 68.552C207.398 68.552 213.798 69.8747 218.065 72.52C222.417 75.1653 224.593 79.304 224.593 84.936C224.593 87.24 224.252 89.7573 223.569 92.488C222.886 95.1333 221.862 97.3947 220.497 99.272H184.529ZM201.553 84.04C201.553 81.3947 201.126 79.6027 200.273 78.664C199.42 77.7253 198.396 77.256 197.201 77.256C195.836 77.256 194.556 77.7253 193.361 78.664C192.252 79.5173 191.228 80.712 190.289 82.248C189.35 83.6987 188.497 85.4053 187.729 87.368C186.961 89.2453 186.321 91.2507 185.809 93.384H200.401C200.572 92.36 200.742 91.2933 200.913 90.184C201.084 89.2453 201.212 88.2213 201.297 87.112C201.468 86.0027 201.553 84.9787 201.553 84.04ZM231.888 69.96C235.045 69.2773 237.819 68.5093 240.208 67.656C242.597 66.8027 244.773 65.736 246.736 64.456C248.784 63.176 250.704 61.5973 252.496 59.72C254.373 57.8427 256.379 55.5387 258.512 52.808H271.696L267.984 69.96H277.968L276.304 78.536H266.192L260.944 103.496C260.517 105.459 260.176 107.208 259.92 108.744C259.664 110.28 259.536 111.475 259.536 112.328C259.536 114.035 260.133 115.101 261.328 115.528C262.608 115.955 264.955 116.168 268.368 116.168L266.448 125C265.851 125.171 264.912 125.299 263.632 125.384C262.437 125.469 261.072 125.555 259.536 125.64C258.085 125.811 256.549 125.896 254.928 125.896C253.392 125.981 252.027 126.024 250.832 126.024C248.699 126.024 246.608 125.853 244.56 125.512C242.512 125.256 240.677 124.701 239.056 123.848C237.435 122.909 236.112 121.587 235.088 119.88C234.149 118.173 233.68 115.869 233.68 112.968C233.68 111.944 233.723 110.664 233.808 109.128C233.979 107.592 234.277 105.885 234.704 104.008L240.08 78.536H230.096L231.888 69.96ZM323.869 69.96H349.981L338.205 125H317.469L315.165 116.808H314.397C312.178 119.453 309.149 121.672 305.309 123.464C301.554 125.171 297.757 126.024 293.917 126.024C288.797 126.024 284.786 124.744 281.885 122.184C278.984 119.539 277.533 116.125 277.533 111.944C277.533 109.811 277.874 107.165 278.557 104.008C279.325 100.765 280.008 97.736 280.605 94.92L285.981 69.96H311.965L305.565 99.912C305.394 100.595 305.224 101.405 305.053 102.344C304.882 103.283 304.712 104.221 304.541 105.16C304.37 106.013 304.2 106.867 304.029 107.72C303.944 108.488 303.901 109.128 303.901 109.64C303.901 110.92 304.157 112.029 304.669 112.968C305.266 113.821 306.29 114.248 307.741 114.248C309.277 114.248 310.728 113.736 312.093 112.712C313.458 111.688 314.525 110.707 315.293 109.768L323.869 69.96ZM371.224 146.504H345.112L361.24 69.96H382.104L384.408 78.152H385.176C388.248 74.9093 391.661 72.6053 395.416 71.24C399.256 69.7893 403.011 69.064 406.68 69.064C409.667 69.064 412.141 69.5333 414.104 70.472C416.152 71.3253 417.773 72.52 418.968 74.056C420.163 75.592 421.016 77.4267 421.528 79.56C422.04 81.6933 422.296 83.9547 422.296 86.344C422.296 87.5387 422.211 89.3307 422.04 91.72C421.869 94.1093 421.485 96.7973 420.888 99.784C420.291 102.685 419.437 105.715 418.328 108.872C417.219 111.944 415.725 114.76 413.848 117.32C412.056 119.88 409.752 121.971 406.936 123.592C404.205 125.213 400.92 126.024 397.08 126.024C394.947 126.024 392.856 125.768 390.808 125.256C388.845 124.744 387.053 124.061 385.432 123.208C383.811 122.355 382.36 121.373 381.08 120.264C379.885 119.069 378.989 117.875 378.392 116.68H377.624L371.224 146.504ZM384.792 113.608C386.84 113.608 388.547 112.541 389.912 110.408C391.277 108.189 392.387 105.629 393.24 102.728C394.093 99.7413 394.691 96.7973 395.032 93.896C395.459 90.9093 395.672 88.6907 395.672 87.24C395.672 85.5333 395.373 84.1253 394.776 83.016C394.264 81.9067 393.283 81.352 391.832 81.352C390.211 81.352 388.675 81.9493 387.224 83.144C385.773 84.2533 384.707 85.2347 384.024 86.088L379.032 109.512C379.715 110.451 380.525 111.389 381.464 112.328C382.403 113.181 383.512 113.608 384.792 113.608ZM438.294 58.056H453.398L475.03 84.552L443.542 111.048H428.438L458.646 84.552L438.294 58.056Z" fill="white"/>
</svg>
